<?xml version="1.0" encoding="UTF-8"?>
<svg id="Layer_1" data-name="Layer 1" xmlns="http://www.w3.org/2000/svg" viewBox="0 0 720 720">
  <defs>
    <style>
      .cls-1 {
        fill: #030202;
        stroke-width: 0px;
      }
    </style>
  </defs>
  <polygon class="cls-1" points="283.53 195.89 433.24 195.89 459.16 284.06 471.5 281.24 485.96 352.83 497.42 353.71 481.02 417.36 490.37 422.12 448.22 473.08 452.28 478.72 391.8 507.11 392.86 510.99 329.03 510.99 329.03 508.35 267.27 479.96 271.63 474.01 228.12 422.96 237.31 418.48 219.39 354.32 231.43 353.44 243.99 281.19 257.74 285.34 283.53 195.89"/>
  <path class="cls-1" d="M289.26,611.68s.26,11.2,17.54,9.17c61.01-15.16,73-7.58,111.09-.88,16.75,0,17.63-12.52,17.63-12.52l-20.1-2.82-22.22-89.58h-66.12l-19.4,92.93-5.29-.71-1.76,2.82-11.37,1.59Z"/>
  <path class="cls-1" d="M417.1,602.02c38.09-10.18,64.8,10.32,70.22-13.36h6.74l10.05,10.05,46.55-30.65h4.1s10.38-8.96,3.97-15.38h-16.8l-3.31-3.31-20.5,4.89-2.78-2.78-3.84,3.84-57.53-73.66-58.85,28.3,21.95,92.04Z"/>
  <path class="cls-1" d="M303.48,602.02c-38.09-10.18-64.8,10.32-70.22-13.36h-6.74s-10.05,10.05-10.05,10.05l-46.55-30.65h-4.1s-10.38-8.96-3.97-15.38h16.8s3.31-3.31,3.31-3.31l20.5,4.89,2.78-2.78,3.84,3.84,57.53-73.66,58.85,28.3-21.95,92.04Z"/>
  <path class="cls-1" d="M511.88,548.9s16.22-22.04,42.67-29.8l11.99,4.06,20.45-10.23s8.46-6,2.47-14.46l-12.17,3.53,31.21-49.72s7.23-7.41,0-14.64l-11.46,8.46-18.16-1.23-18.05,14.28-66.58-35.27-41.26,50.08,58.89,74.94Z"/>
  <path class="cls-1" d="M208.12,550.31s-16.22-22.04-42.67-29.8l-11.99,4.06-20.45-10.23s-8.46-6-2.47-14.46l12.17,3.53-31.21-49.72s-7.23-7.41,0-14.64l11.46,8.46,18.16-1.23,18.05,14.28,66.58-35.27,41.26,50.08-58.89,74.94Z"/>
  <path class="cls-1" d="M555.96,454.21s-1.06-31.03,16.93-60.13h20.1l11.46-11.99,3.53-53.25-12.7-7.05-13.32,26.27v25.39l-23.18-1.59-3.88,28.57s-15.69-25.57-2.12-57.66l-.53-17.1,12.52-1.59s2.47-28.04-19.04-78.47l-19.93,8.99s9.35,14.64,15.52,52.9c0,0-17.81.35-19.04,4.06-1.23,3.7-6.17,18.16,5.11,42.67l-25.22-.79-16.05,62.86,69.83,37.91Z"/>
  <path class="cls-1" d="M161.88,454.21s1.06-31.03-16.93-60.13h-20.1s-11.46-11.99-11.46-11.99l-3.53-53.25,12.7-7.05,13.32,26.27v25.39s23.18-1.59,23.18-1.59l3.88,28.57s15.69-25.57,2.12-57.66l.53-17.1-12.52-1.59s-2.47-28.04,19.04-78.47l19.93,8.99s-9.35,14.64-15.52,52.9c0,0,17.81.35,19.04,4.06,1.23,3.7,6.17,18.16-5.11,42.67l25.22-.79,16.05,62.86-69.83,37.91Z"/>
  <path class="cls-1" d="M211.1,241.56l28.74-43.91-10.4-7.41,37.56-45.32c-6.88-10.58,3.17-16.22,3.17-16.22,14.28,35.09,35.79,11.11,40.38,6.52,4.58-4.58,10.93,1.06,10.93,1.06l-6.17,6.7h95.75l-6.35-7.23c3.53-4.41,10.76-.18,10.76-.18,27.51,30.15,38.44-6.88,38.44-6.88,8.99,6.52,3.53,15.69,3.53,15.69l37.56,45.85-10.4,7.41c25.92,30.86,27.51,43.91,27.51,43.91l-12.34,5.64-10.58-18.69c-19.04,7.76,5.47,35.62,5.47,35.62l7.58-3.53,58.01-24.25.79-17.28c0-8.38-10.23-9.52-10.23-9.52l-2.47,15.87-6.88-.79-8.99-17.99v-33.86l-16.93,1.06-22.22-41.26,2.12,19.31-8.9,4.67-9.17-9.17,2.47-2.12-1.94-7.93-25.04-21.34-2.64-8.46-2.29.53,2.29,7.93-13.22,5.47-3.7,8.82h-3.53v-11.64h-34.03v-19.75h-66.65v19.57h-34.91v12.17h-2.82l-6.88-11.81-10.76-4.06,1.94-6.7-3.44-1.28-2.12,5.69-25.79,22.61-.66,9.39,2.31,2.31-8.13,8.13-9.65-4.76,1.32-17.85-22.75,39.15-14.81.66-.4,34.65-9.79,19.18-8.99-.13-1.98-15.34c-12.7,0-11.77,12.83-11.77,12.83l.66,13.22,59.78,22.61,6.22,8.86s21.29-12.56,16.07-35.71l-7.69-3.97-9.52,19.22-13.4-6Z"/>
</svg>