<?xml version="1.0" encoding="UTF-8"?>
<svg id="Layer_1" data-name="Layer 1" xmlns="http://www.w3.org/2000/svg" viewBox="0 0 720 720">
  <defs>
    <style>
      .cls-1 {
        stroke-width: 0px;
      }
    </style>
  </defs>
  <path class="cls-1" d="M525.73,567.81h-28.22v-25.02h-11.88v-188.23c0-27.05-8.55-52.11-23.1-72.61,14.1-11.52,23.1-29.04,23.1-48.66,0-27.67-17.89-51.16-42.74-59.54v-100.48h-7.45v-3.68c0-5.78-4.69-10.47-10.47-10.47h-129.95c-5.78,0-10.47,4.69-10.47,10.47v3.68h-7.45v100.48c-24.85,8.38-42.74,31.87-42.74,59.54,0,19.62,9,37.14,23.1,48.66-14.55,20.5-23.1,45.56-23.1,72.61v188.23h-16.71v25.02h-23.39v88.63h74.34v32.7h177.96v-32.7h79.17v-88.63Z"/>
</svg>